<svg width="33" height="37" viewBox="0 0 33 37" fill="none" xmlns="http://www.w3.org/2000/svg">
<path d="M29.7 11.3852H23.1V6.89629C23.1 3.59099 20.1448 0.911133 16.5 0.911133C12.8552 0.911133 9.9 3.59099 9.9 6.89629V11.3852H3.3L0 36.8221H33L29.7 11.3852ZM11.55 6.89629C11.55 4.42143 13.7709 2.40742 16.5 2.40742C19.2291 2.40742 21.45 4.42143 21.45 6.89629V11.3852H11.55V6.89629ZM3.71085 33.8295L6.2337 14.3777H9.9V16.6222C9.9 17.0352 10.2696 17.3703 10.725 17.3703C11.1804 17.3703 11.55 17.0352 11.55 16.6222V14.3777H21.45V16.6222C21.45 17.0352 21.8196 17.3703 22.275 17.3703C22.7304 17.3703 23.1 17.0352 23.1 16.6222V14.3777H26.7663L29.2891 33.8295H3.71085Z" fill="white"/>
</svg>
