<svg width="24" height="24" viewBox="0 0 24 24" fill="none" xmlns="http://www.w3.org/2000/svg">
<path d="M17.25 7.288V8.557C17.25 8.854 17.009 9.096 16.712 9.096H15.443C15.144 9.096 14.905 8.854 14.905 8.557V7.288C14.905 6.991 15.144 6.75 15.443 6.75H16.712C17.009 6.75 17.25 6.991 17.25 7.288ZM12 14.691C13.486 14.691 14.693 13.486 14.693 11.999C14.693 10.512 13.486 9.309 12 9.309C10.513 9.309 9.309 10.513 9.309 12C9.309 13.487 10.513 14.691 12 14.691ZM16.261 11.4C16.289 11.596 16.307 11.796 16.307 11.999C16.307 14.379 14.379 16.307 12 16.307C9.621 16.307 7.693 14.379 7.693 12C7.693 11.796 7.711 11.597 7.739 11.401C7.766 11.207 7.805 11.018 7.857 10.834H6.75V16.713C6.75 17.01 6.991 17.251 7.288 17.251H16.712C17.009 17.251 17.25 17.01 17.25 16.713V10.834H16.143C16.193 11.018 16.233 11.207 16.261 11.4ZM24 12C24 18.627 18.627 24 12 24C5.373 24 0 18.627 0 12C0 5.373 5.373 0 12 0C18.627 0 24 5.373 24 12ZM19 6.615C19 5.723 18.277 5 17.385 5H6.615C5.723 5 5 5.723 5 6.615V17.384C5 18.277 5.723 19 6.615 19H17.385C18.277 19 19 18.277 19 17.384V6.615Z" fill="white"/>
</svg>
